<?xml version="1.0" encoding="UTF-8"?>
<!DOCTYPE svg PUBLIC "-//W3C//DTD SVG 1.1//EN" "http://www.w3.org/Graphics/SVG/1.1/DTD/svg11.dtd">
<svg xmlns="http://www.w3.org/2000/svg" xmlns:xlink="http://www.w3.org/1999/xlink" version="1.1" width="24" height="24"
    viewBox="0 0 24 24">
    <defs>
        <linearGradient id="grad-1" x1="0%" y1="0%" x2="0%" y2="100%">
            <stop offset="0%" style="stop-color:#0369a1;stop-opacity:1" />
            <stop offset="100%" style="stop-color:#7dd3fc;stop-opacity:1" />
        </linearGradient>
        <linearGradient id="grad-2" x1="0%" y1="0%" x2="0%" y2="100%">
            <stop offset="0%" style="stop-color:#7dd3fc;stop-opacity:1" />
            <stop offset="100%" style="stop-color:#f0f9ff;stop-opacity:1" />
        </linearGradient>
        <style>
            .flip {
                transform: rotateZ(180deg);
                transform-origin: 50%;
            }
            .spin {
                transform-origin: 50%;
                animation: spin 2s linear infinite forwards;
            }
            @keyframes spin {
                from {
                    transform: rotateZ(0deg);
                }
                to {
                    transform: rotateZ(360deg);
                }
            }
        </style>
    </defs>
    <g class="spin">
        <path d="M12,4L12,1C6,1,1,6,1,12C1,18,6,23,12,23L12,20C7.5,20,4,16.5,4,12C4,7.5,7.5,4,12,4Z" fill="url(#grad-1)"
            class="gradient-1" />
        <path d="M12,4L12,1C6,1,1,6,1,12C1,18,6,23,12,23L12,20C7.5,20,4,16.5,4,12C4,7.5,7.5,4,12,4Z" fill="url(#grad-2)"
            class="flip" />
    </g>
</svg>