<?xml version="1.0" encoding="UTF-8" standalone="no"?> <svg width="512" height="512" viewBox="0 0 512 512" fill="none" xmlns="http://www.w3.org/2000/svg">
<path d="M480.976 133.738L495.026 126.086C476.604 92.409 451.339 62.9601 420.854 39.6328L411.148 52.3535C439.847 74.3132 463.633 102.036 480.976 133.738V133.738Z" fill="#fff"/>
<path d="M404.368 27.9932C398.393 24.0967 392.184 20.3896 385.914 16.9746L378.262 31.0254C384.162 34.2393 390.005 37.7285 395.63 41.3955L404.368 27.9932Z" fill="#fff"/>
<path d="M387.598 168.698C391.064 171.317 395.195 172.911 399.521 173.301C403.848 173.691 408.197 172.861 412.076 170.905L429.401 162.243C430.333 161.778 431.353 161.515 432.394 161.472C433.435 161.429 434.473 161.606 435.44 161.992L464.398 173.575C465.985 177.59 467.458 181.65 468.817 185.753L435.045 191.382C430.562 192.121 426.424 194.251 423.217 197.469L406.383 214.303C405.846 214.843 405.208 215.271 404.505 215.562C403.801 215.853 403.047 216.002 402.286 216C398.913 216 395.586 216.783 392.567 218.288C389.548 219.792 386.919 221.977 384.888 224.67C382.856 227.363 381.478 230.491 380.861 233.807C380.243 237.124 380.404 240.538 381.331 243.781L390.078 274.394C390.362 275.387 390.375 276.439 390.115 277.439C389.856 278.439 389.334 279.352 388.604 280.082L380.097 288.589C376.016 292.68 373.724 298.222 373.724 304C373.724 309.778 376.016 315.321 380.097 319.411L388.604 327.918C391.352 330.666 394.786 332.629 398.548 333.603C402.31 334.578 406.265 334.53 410.002 333.463L452.064 321.444C452.872 321.214 453.72 321.162 454.55 321.291C455.38 321.421 456.171 321.729 456.87 322.194L467.698 329.413C464.489 338.651 460.679 347.669 456.292 356.409L470.589 363.591C488.928 326.995 497.603 286.317 495.792 245.423C493.98 204.529 481.741 164.778 460.237 129.947C438.734 95.1157 408.681 66.3622 372.934 46.4185C337.187 26.4748 296.934 16.0037 256 16.0001C230.707 15.9756 205.57 19.9529 181.52 27.7843L186.48 42.9952C202.847 37.6639 219.775 34.2459 236.928 32.8097L263.813 65.0724C264.44 65.8259 264.912 66.6971 265.199 67.635C265.486 68.5729 265.583 69.5586 265.484 70.5345C265.386 71.5103 265.093 72.4567 264.625 73.3183C264.156 74.1798 263.52 74.9391 262.754 75.5519C259.192 78.4011 256.542 82.2302 255.129 86.5672C253.717 90.9042 253.604 95.5596 254.805 99.9599C256.006 104.36 258.468 108.313 261.888 111.331C265.307 114.35 269.535 116.301 274.051 116.946L287.623 118.885C288.71 119.038 289.748 119.432 290.662 120.039C291.576 120.646 292.343 121.45 292.905 122.392L301.547 136.795C305.768 143.891 312.04 149.543 319.536 153.005C327.032 156.466 335.402 157.576 343.541 156.188L362.827 152.973C363.811 152.811 364.817 152.85 365.786 153.086C366.754 153.322 367.665 153.751 368.464 154.348L387.598 168.698Z" fill="#fff"/>
<path d="M315.377 472.062L289.242 445.927C287.288 443.965 286.072 441.389 285.799 438.634C285.527 435.879 286.214 433.114 287.745 430.808L291.3 425.473C294.37 420.878 296.006 415.476 296.001 409.95V409.593C296 405.34 295.031 401.144 293.166 397.322C291.301 393.5 288.59 390.154 285.238 387.537C281.886 384.92 277.982 383.101 273.822 382.219C269.662 381.337 265.356 381.415 261.23 382.446C258.455 383.14 255.524 382.818 252.965 381.538L250.978 380.545C247.13 378.621 242.89 377.61 238.587 377.591C234.284 377.571 230.035 378.545 226.17 380.435C222.305 382.326 218.928 385.082 216.301 388.489C213.674 391.897 211.869 395.865 211.025 400.084L210.635 402.032C210.185 404.254 209.116 406.303 207.551 407.944C205.987 409.584 203.991 410.75 201.794 411.306L190.089 414.231C186.521 415.114 183.162 416.695 180.209 418.883C177.255 421.072 174.764 423.824 172.881 426.981L155.332 456.231C144.583 450.805 134.292 444.515 124.56 437.424L147.986 409.313C151.984 404.549 154.69 398.837 155.844 392.725C156.997 386.613 156.559 380.307 154.572 374.413L145.717 347.852C143.92 342.48 140.902 337.597 136.902 333.587L121.804 318.489C119.901 316.587 118.392 314.328 117.362 311.842C116.332 309.356 115.802 306.691 115.802 304C115.802 301.309 116.332 298.644 117.362 296.158C118.392 293.672 119.901 291.413 121.804 289.511C126.404 284.908 129.69 279.159 131.322 272.86C132.954 266.561 132.873 259.94 131.087 253.683L125.058 232.581C123.007 225.515 118.88 219.229 113.213 214.536C107.545 209.844 100.599 206.962 93.275 206.265L38.735 201.307C39.9857 196.321 41.4059 191.379 42.9957 186.48L27.7848 181.52C16.0362 217.556 12.9872 255.862 18.8875 293.303C24.7878 330.744 39.4695 366.256 61.7313 396.932C83.993 427.609 113.202 452.578 146.968 469.797C180.734 487.016 218.098 495.996 256.001 496C292.925 496.105 329.365 487.602 362.43 471.168L355.325 456.832C342.528 463.179 329.151 468.279 315.377 472.062V472.062Z" fill="#fff"/>
<path d="M256 152C235.431 152 215.323 158.099 198.221 169.527C181.118 180.955 167.788 197.197 159.917 216.201C152.045 235.204 149.986 256.115 153.998 276.289C158.011 296.463 167.916 314.994 182.461 329.539C197.006 344.084 215.537 353.989 235.711 358.002C255.885 362.015 276.796 359.955 295.799 352.083C314.803 344.212 331.045 330.882 342.473 313.779C353.901 296.677 360 276.569 360 256C359.969 228.427 349.002 201.992 329.505 182.495C310.008 162.998 283.573 152.031 256 152V152ZM264 343.633V320H248V343.633C227.521 341.734 208.351 332.735 193.808 318.192C179.265 303.649 170.266 284.479 168.367 264H192V248H168.367C170.266 227.521 179.265 208.351 193.808 193.808C208.351 179.265 227.521 170.266 248 168.367V192H264V168.367C284.479 170.266 303.649 179.265 318.192 193.808C332.735 208.351 341.734 227.521 343.633 248H320V264H343.633C341.734 284.479 332.735 303.649 318.192 318.192C303.649 332.735 284.479 341.734 264 343.633Z" fill="#fff"/>
<path d="M248.001 252.687L202.344 298.343L213.658 309.657L261.658 261.657C263.158 260.157 264.001 258.122 264.001 256V208H248.001V252.687Z" fill="#fff"/>
<path d="M104 160C115.076 160 125.903 156.716 135.112 150.562C144.321 144.409 151.499 135.663 155.737 125.43C159.976 115.198 161.085 103.938 158.924 93.075C156.763 82.212 151.43 72.2338 143.598 64.4021C135.766 56.5703 125.788 51.2368 114.925 49.076C104.062 46.9153 92.8024 48.0243 82.5697 52.2628C72.3371 56.5013 63.5911 63.6789 57.4377 72.8881C51.2843 82.0972 48 92.9243 48 104C48.0166 118.847 53.922 133.081 64.4204 143.58C74.9188 154.078 89.153 159.983 104 160V160ZM104 64C111.911 64 119.645 66.346 126.223 70.7412C132.801 75.1365 137.928 81.3836 140.955 88.6927C143.983 96.0017 144.775 104.044 143.231 111.804C141.688 119.563 137.878 126.69 132.284 132.284C126.69 137.878 119.563 141.688 111.804 143.231C104.044 144.775 96.0017 143.983 88.6927 140.955C81.3836 137.928 75.1365 132.801 70.7412 126.223C66.346 119.645 64 111.911 64 104C64.0121 93.3951 68.2303 83.228 75.7291 75.7292C83.228 68.2303 93.3951 64.0122 104 64V64Z" fill="#fff"/>
<path d="M192 96H176V112H192V96Z" fill="#fff"/>
<path d="M112 176H96V192H112V176Z" fill="#fff"/>
<path d="M32 96H16V112H32V96Z" fill="#fff"/>
<path d="M45.6582 34.3438L34.3438 45.6582L50.3438 61.6582L61.6582 50.3438L45.6582 34.3438Z" fill="#fff"/>
<path d="M157.658 146.344L146.344 157.658L162.344 173.658L173.658 162.344L157.658 146.344Z" fill="#fff"/>
<path d="M162.344 34.3438L146.344 50.3438L157.658 61.6582L173.658 45.6582L162.344 34.3438Z" fill="#fff"/>
<path d="M50.3438 146.344L34.3438 162.344L45.6582 173.658L61.6582 157.658L50.3438 146.344Z" fill="#fff"/>
<path d="M416 360C414.607 360 413.238 360.364 412.029 361.055C410.819 361.747 409.812 362.742 409.105 363.943C408.399 365.143 408.018 366.508 408 367.901C407.983 369.294 408.329 370.667 409.006 371.885L409.389 372.572C412.772 378.661 414.506 385.528 414.42 392.494C414.334 399.459 412.43 406.281 408.898 412.284C405.365 418.288 400.326 423.265 394.279 426.723C388.233 430.181 381.387 432 374.422 432C373.017 432 371.637 432.37 370.42 433.073C369.204 433.775 368.194 434.786 367.492 436.003C366.79 437.22 366.421 438.6 366.422 440.005C366.423 441.41 366.794 442.79 367.497 444.006C372.395 452.533 379.461 459.614 387.978 464.53C396.495 469.447 406.161 472.024 415.995 472C417.12 472 418.253 471.967 419.387 471.9C447.778 470.223 470.87 446.63 471.958 418.19C472.253 410.658 471.023 403.143 468.344 396.097C465.665 389.051 461.59 382.618 456.365 377.184C451.14 371.75 444.871 367.428 437.935 364.475C430.999 361.522 423.538 360 416 360V360ZM455.97 417.579C455.668 425.141 453.228 432.463 448.934 438.694C444.639 444.926 438.665 449.812 431.706 452.785C424.746 455.759 417.086 456.698 409.615 455.494C402.143 454.29 395.166 450.992 389.493 445.982C403.601 442.013 415.598 432.685 422.924 419.991C430.249 407.297 432.322 392.242 428.7 378.041C436.905 380.803 443.996 386.148 448.911 393.274C453.826 400.401 456.303 408.928 455.97 417.579H455.97Z" fill="#fff"/>
<path d="M32.0449 380.115L18.0586 387.885C36.3015 420.808 61.1917 449.579 91.1484 472.368L100.854 459.647C72.6517 438.194 49.2195 411.109 32.0449 380.115V380.115Z" fill="#fff"/>
<path d="M107.633 484.008C113.608 487.904 119.817 491.611 126.087 495.026L133.739 480.976C127.839 477.762 121.996 474.272 116.371 470.605L107.633 484.008Z" fill="#fff"/>
<path d="M112 16H96V32H112V16Z" fill="#fff"/>
<path d="M331.26 368H328.908C325.73 368 322.6 368.779 319.793 370.268C316.985 371.758 314.586 373.913 312.804 376.545C311.023 379.176 309.913 382.205 309.573 385.364C309.232 388.524 309.672 391.719 310.852 394.67L317.695 411.775C319.175 415.475 321.755 418.63 325.086 420.815C328.418 423 332.34 424.109 336.323 423.992C340.305 423.875 344.155 422.537 347.353 420.16C350.55 417.783 352.94 414.482 354.2 410.702L357.352 401.241C358.507 397.817 358.68 394.137 357.85 390.62C357.02 387.102 355.22 383.888 352.656 381.341L345.011 373.695C343.209 371.884 341.066 370.448 338.706 369.47C336.345 368.493 333.814 367.993 331.26 368V368Z" fill="#fff"/>
</svg>
